<svg xmlns="http://www.w3.org/2000/svg" width="246.58" height="246.58" viewBox="0 0 246.58 246.58">
  <g id="dEDU" transform="translate(-225 -22)">
    <circle id="Ellipse_1" data-name="Ellipse 1" cx="123.29" cy="123.29" r="123.29" transform="translate(225 22)" fill="#6213aa"/>
    <g id="books" transform="translate(265.668 62.432)">
      <path id="Path_180" data-name="Path 180" d="M103.179,17.593A30.568,30.568,0,0,1,107.524,0H6.938A7.8,7.8,0,0,0,4.284.494,7.876,7.876,0,0,0,2.05,1.976,6.884,6.884,0,0,0,.543,4.2,6.534,6.534,0,0,0,0,6.852V28.333a6.75,6.75,0,0,0,.543,2.654A6.885,6.885,0,0,0,2.05,33.209a7.876,7.876,0,0,0,2.233,1.482,6.536,6.536,0,0,0,2.655.494H107.524A31.527,31.527,0,0,1,103.179,17.593Z" transform="translate(0 76.031) rotate(-45)" fill="#fff"/>
      <path id="Path_181" data-name="Path 181" d="M4.345,17.593A31.536,31.536,0,0,1,0,35.185H100.584a7.8,7.8,0,0,0,2.656-.493,7.916,7.916,0,0,0,2.232-1.482,6.872,6.872,0,0,0,1.509-2.223,6.529,6.529,0,0,0,.543-2.654V6.852a6.738,6.738,0,0,0-.543-2.653,6.871,6.871,0,0,0-1.509-2.223A7.883,7.883,0,0,0,103.24.494,6.562,6.562,0,0,0,100.584,0H0A31.542,31.542,0,0,1,4.345,17.593Z" transform="translate(18.308 122.671) rotate(-45)" fill="#fff"/>
      <path id="Path_182" data-name="Path 182" d="M103.179,17.593A30.568,30.568,0,0,1,107.524,0H6.938A7.762,7.762,0,0,0,4.284.494,7.873,7.873,0,0,0,2.05,1.974,6.907,6.907,0,0,0,.543,4.2,6.534,6.534,0,0,0,0,6.852V28.333a6.75,6.75,0,0,0,.543,2.654A6.9,6.9,0,0,0,2.05,33.209a7.877,7.877,0,0,0,2.233,1.482,6.56,6.56,0,0,0,2.655.494H107.524A31.53,31.53,0,0,1,103.179,17.593Z" transform="translate(64.948 140.979) rotate(-45)" fill="#fff"/>
    </g>
  </g>
</svg>
