<svg xmlns="http://www.w3.org/2000/svg" width="923" height="923" viewBox="0 0 923 923">
  <g id="Group_59" data-name="Group 59" transform="translate(-17215 -11.801)">
    <g id="Rectangle_35" data-name="Rectangle 35" transform="translate(17215 11.801)" fill="#2a2968" stroke="#707070" stroke-width="1">
      <rect width="923" height="923" rx="21" stroke="none"/>
      <rect x="0.5" y="0.5" width="922" height="922" rx="20.5" fill="none"/>
    </g>
    <path id="Path_129" data-name="Path 129" d="M343.04,302.616c-9.191-15.9-1.28-22.484,6.922-20.774h0c12.449,2.66,16.172-3.61,17.51-15.96,8.842-81.131-49.33-158.146-122.452-163.656-90.341-6.84-157.879,82.335-143.278,178.6,9.715,64.094,48.457,111.342,102.15,124.325,18.033,4.37,35.427,5.13,52.3,2.217,42.815-7.41,85.687,12.287,107.967,52.757l1.978,3.61c-58,52.631-177.076,66.564-261.309,3.483C1.919,390.207-19.663,258.6,16,160.81,53.343,58.082,149.094-11.776,260.028,1.651,325.123,9.5,377.012,42.692,417.965,97.539c41.07,55.038,54.333,118.752,48.981,189.94,8.028.7,13.263,1.14,19.6,1.647s10.005,7.663,7.1,13.554a3.59,3.59,0,0,1-.291.507c-23.792,34.9-44.734,65.3-68.643,100.132-3.432,4.877-14.892,13.427-24.2-1.457-23.734-38.127-33.507-57.761-57.532-99.245Z" transform="translate(17365.266 172.292) rotate(-17)" fill="#fff"/>
    <path id="Path_130" data-name="Path 130" d="M481.583,59.1H487.1c-2.382,20.33-3.2,40.534-7.2,59.978C460.029,215.849,376.774,297.043,286.6,308.76,165.76,324.4,64.726,254.039,28.357,128.511c-2.092-7.22-4.532-10.83-12.026-10.577h-.29c-13.188.38-20.8-16.15-12.724-27.487l60.422-84.3c6.275-8.74,18.65-8.043,24.053,1.33,18.824,32.49,37.183,64.158,55.949,96.458,5.229,8.993-.7,20.71-10.458,20.71h0c9.935,39.077,58.738,88.858,122.82,86.768,49.384-1.583,91.738-31.541,114.28-77.521,22.194-45.221,64.083-74.861,111.084-74.861Z" transform="matrix(0.951, -0.309, 0.309, 0.951, 17419.057, 612.923)" fill="#fff"/>
  </g>
</svg>
